<?xml version="1.0" encoding="UTF-8"?>
<svg xmlns="http://www.w3.org/2000/svg" xmlns:xlink="http://www.w3.org/1999/xlink" width="18pt" height="18pt" viewBox="0 0 18 18" version="1.1">
<g id="surface505084">
<path style=" stroke:none;fill-rule:nonzero;fill:#818c99;fill-opacity:1;" d="M 3.601562 2.398438 C 2.945312 2.398438 2.398438 2.945312 2.398438 3.601562 L 2.398438 14.398438 C 2.398438 15.054688 2.945312 15.601562 3.601562 15.601562 L 14.398438 15.601562 C 15.054688 15.601562 15.601562 15.054688 15.601562 14.398438 L 15.601562 3.601562 C 15.601562 2.945312 15.054688 2.398438 14.398438 2.398438 Z M 3.601562 3.601562 L 4.800781 3.601562 L 4.800781 4.800781 L 7.800781 4.800781 L 7.800781 3.601562 L 10.199219 3.601562 L 10.199219 4.800781 L 13.199219 4.800781 L 13.199219 3.601562 L 14.398438 3.601562 L 14.398438 9 L 13.199219 9 L 13.199219 10.199219 L 14.398438 10.199219 L 14.398438 14.398438 L 10.199219 14.398438 L 10.199219 12.601562 L 7.800781 12.601562 L 7.800781 14.398438 L 3.601562 14.398438 L 3.601562 10.199219 L 4.800781 10.199219 L 4.800781 9 L 3.601562 9 Z M 4.800781 10.199219 L 4.800781 11.398438 L 13.199219 11.398438 L 13.199219 10.199219 L 10.199219 10.199219 L 10.199219 9 L 7.800781 9 L 7.800781 10.199219 Z M 5.398438 6.601562 L 5.398438 7.800781 L 7.800781 7.800781 L 7.800781 6.601562 Z M 10.199219 6.601562 L 10.199219 7.800781 L 12.601562 7.800781 L 12.601562 6.601562 Z M 10.199219 6.601562 "/>
</g>
</svg>
